<?xml version="1.0"?>
<svg width="640" height="480" xmlns="http://www.w3.org/2000/svg" xmlns:svg="http://www.w3.org/2000/svg">
 <!-- Created with SVG-edit - http://svg-edit.googlecode.com/ -->
 <g>
  <title>Layer 1</title>
  <polygon stroke="#000000" stroke-width="5" points="197,200.65000915527344 200.13876342773438,209.6798553466797 209.69659423828125,209.87462615966797 202.07864379882812,215.650146484375 204.846923828125,224.8003692626953 197,219.33999633789062 189.153076171875,224.8003692626953 191.92135620117188,215.650146484375 184.30340576171875,209.87462615966797 193.86123657226562,209.6798553466797 197,200.65000915527344 200.13876342773438,209.6798553466797 " strokeWidth="5" strokecolor="#000000" fill="#7f003f" orient="point" r2="5.339996" r="13.34999" point="5" shape="star" id="svg_7" cy="107" cx="159"/>
  <path id="svg_11" d="m156.589996,214.774994l0,0c0,-23.057556 18.076828,-41.75 40.375,-41.75l0,0c10.708588,0 20.97731,4.398224 28.550079,12.228897c7.571548,7.829391 11.824921,18.449112 11.824921,29.521103l0,0c0,23.058838 -18.076828,41.75 -40.375,41.75l0,0c-22.298172,0 -40.375,-18.691162 -40.375,-41.75zm20.1875,0l0,0c0,11.529419 9.037796,20.875 20.1875,20.875c11.149704,0 20.1875,-9.345581 20.1875,-20.875c0,-11.529419 -9.037796,-20.875 -20.1875,-20.875l0,0c-11.149704,0 -20.1875,9.345581 -20.1875,20.875z" stroke-width="5" fill="#7f003f"/>
 </g>
</svg>